<?xml version="1.0" encoding="utf-8"?>
<svg xmlns="http://www.w3.org/2000/svg" xmlns:xlink="http://www.w3.org/1999/xlink" style="margin: auto; background: none; display: block; shape-rendering: auto;" width="114px" height="114px" viewBox="0 0 100 100" preserveAspectRatio="xMidYMid">
<g transform="translate(50 50)">
<g transform="rotate(22.7617)">
<animateTransform attributeName="transform" type="rotate" values="0;40" keyTimes="0;1" dur="0.2777777777777778s" repeatCount="indefinite"></animateTransform><path d="M25.937424698685874 -7.5 L35.937424698685874 -7.5 L35.937424698685874 7.5 L25.937424698685874 7.5 A27 27 0 0 1 24.690127131894293 10.926921900100563 L24.690127131894293 10.926921900100563 L32.350571563084074 17.354797996965956 L22.70875741778598 28.84546464375063 L15.0483129865962 22.417588546885238 A27 27 0 0 1 11.890044679891593 24.241015603934205 L11.890044679891593 24.241015603934205 L13.626526456560898 34.089093134056284 L-1.1455898386222214 36.69381579906024 L-2.8820716152915256 26.84573826893816 A27 27 0 0 1 -6.4735218209596415 26.212468697807907 L-6.4735218209596415 26.212468697807907 L-11.47352182095964 34.872722735652296 L-24.463902877726223 27.372722735652296 L-19.463902877726223 18.712468697807907 A27 27 0 0 1 -21.80805551660276 15.918816368837602 L-21.80805551660276 15.918816368837602 L-31.204981724461845 19.33901780209429 L-36.33528387434688 5.243628490305658 L-26.938357666487793 1.823427057048969 A27 27 0 0 1 -26.938357666487796 -1.8234270570489624 L-26.938357666487796 -1.8234270570489624 L-36.335283874346885 -5.243628490305649 L-31.20498172446185 -19.339017802094286 L-21.808055516602764 -15.918816368837598 A27 27 0 0 1 -19.46390287772624 -18.712468697807896 L-19.46390287772624 -18.712468697807896 L-24.463902877726248 -27.372722735652278 L-11.473521820959672 -34.87272273565228 L-6.473521820959665 -26.2124686978079 A27 27 0 0 1 -2.8820716152915318 -26.84573826893816 L-2.8820716152915318 -26.84573826893816 L-1.145589838622232 -36.69381579906024 L13.626526456560876 -34.0890931340563 L11.890044679891577 -24.241015603934216 A27 27 0 0 1 15.0483129865962 -22.417588546885238 L15.0483129865962 -22.417588546885238 L22.70875741778598 -28.84546464375063 L32.35057156308407 -17.354797996965974 L24.690127131894286 -10.926921900100579 A27 27 0 0 1 25.937424698685874 -7.5 M0 -21A21 21 0 1 0 0 21 A21 21 0 1 0 0 -21" fill="#e15b64"></path></g></g>
<!-- [ldio] generated by https://loading.io/ --></svg>